<?xml version="1.0" standalone="no"?>
<!DOCTYPE svg PUBLIC "-//W3C//DTD SVG 20010904//EN"
 "http://www.w3.org/TR/2001/REC-SVG-20010904/DTD/svg10.dtd">
<svg version="1.0" xmlns="http://www.w3.org/2000/svg"
 width="502.000000pt" height="497.000000pt" viewBox="0 0 502.000000 497.000000"
 preserveAspectRatio="xMidYMid meet">

<g transform="translate(0.000000,497.000000) scale(0.100000,-0.100000)"
fill="#000000" stroke="none">
<path d="M2280 4799 c-80 -3 -151 -7 -159 -8 -12 -1 -13 -50 -7 -316 6 -258 5
-316 -6 -319 -7 -2 -47 -11 -88 -21 -224 -52 -426 -137 -594 -249 -54 -37
-102 -65 -107 -64 -4 2 -80 70 -168 151 -223 205 -306 277 -321 277 -19 0
-264 -260 -343 -365 -4 -5 -20 -27 -37 -48 -16 -21 -26 -44 -24 -50 3 -7 56
-53 117 -104 94 -77 187 -156 349 -299 l27 -23 -54 -114 c-68 -143 -107 -259
-137 -407 l-23 -115 -334 -8 c-184 -4 -337 -10 -340 -13 -9 -9 -7 -471 2 -480
7 -7 487 10 614 23 l62 6 6 -39 c34 -214 101 -401 196 -551 l40 -65 -42 -36
c-23 -21 -75 -64 -114 -97 -39 -33 -119 -102 -178 -153 -59 -51 -117 -98 -127
-105 -11 -6 -20 -17 -20 -23 0 -40 306 -393 403 -464 l28 -22 230 229 c126
125 234 227 239 226 5 -2 37 -21 72 -44 92 -59 309 -163 413 -197 50 -16 145
-40 213 -52 l123 -23 -2 -306 -2 -306 69 -8 c70 -8 410 -1 497 10 28 3 51 12
54 20 5 12 -6 212 -22 413 -14 166 -14 191 -2 194 7 2 64 16 129 31 188 43
396 135 565 251 51 35 98 64 104 64 6 0 104 -87 217 -194 114 -106 221 -205
239 -220 l32 -27 29 28 c44 42 199 218 266 303 33 41 73 89 89 107 l30 32 -29
26 c-16 15 -49 44 -74 64 -25 20 -112 92 -195 161 -82 69 -162 134 -177 145
-15 11 -28 26 -28 33 0 7 22 55 49 105 73 134 120 271 167 481 7 32 16 62 21
67 4 4 145 10 313 12 l305 5 8 73 c8 75 1 344 -10 388 l-6 24 -301 -5 c-166
-3 -311 -2 -322 3 -15 5 -23 20 -28 50 -19 121 -113 355 -212 527 l-19 34 100
94 c55 52 164 152 243 221 78 69 142 129 142 134 0 29 -403 449 -431 449 -15
0 -123 -100 -348 -324 l-120 -119 -96 57 c-220 131 -405 195 -697 241 l-38 6
0 309 0 310 -47 1 c-192 5 -244 4 -373 -2z m268 -302 c4 -45 -26 -59 -58 -27
-12 12 -31 20 -43 18 -19 -3 -22 -10 -25 -55 -5 -87 26 -113 79 -67 25 22 51
18 47 -8 -8 -54 -120 -92 -183 -62 -44 21 -65 59 -65 120 0 40 5 51 35 80 41
38 58 43 145 39 l65 -3 3 -35z m242 -359 c197 -29 430 -109 574 -195 401 -241
677 -622 786 -1083 35 -151 45 -469 19 -600 -17 -84 -67 -263 -95 -338 -60
-161 -192 -372 -316 -506 -148 -161 -322 -289 -523 -386 -249 -120 -365 -147
-684 -161 -370 -16 -574 14 -831 124 -460 197 -825 611 -945 1072 -46 180 -60
509 -30 709 36 236 137 488 271 676 76 106 247 281 345 353 35 26 82 60 104
76 59 43 225 124 340 164 198 71 352 101 600 121 78 6 252 -6 385 -26z m1251
-161 c25 -16 49 -62 49 -95 0 -44 -39 -95 -84 -110 -34 -11 -43 -10 -74 5 -75
38 -99 117 -51 169 46 50 109 63 160 31z m-3098 -79 c66 -34 63 -162 -5 -195
-46 -22 -61 -23 -103 -4 -104 46 -98 179 10 212 23 7 71 1 98 -13z m3539
-1191 c7 -6 26 -13 41 -14 26 -1 56 -26 57 -47 0 -11 -82 2 -94 15 -14 13 -44
11 -53 -5 -4 -7 -15 -16 -23 -19 -8 -3 11 -6 42 -6 69 -1 99 -14 121 -51 32
-53 17 -119 -32 -145 -45 -23 -122 -20 -155 6 -55 44 -54 99 3 99 l26 0 -33
21 c-33 22 -46 50 -40 90 2 17 17 31 48 46 52 26 73 28 92 10z m-4000 -93 c9
-3 33 -23 52 -44 30 -33 36 -48 36 -84 0 -173 -274 -201 -306 -30 -9 48 2 79
39 121 43 47 99 58 179 37z m3595 -1301 c40 -18 68 -71 58 -106 -19 -68 -56
-97 -123 -97 -107 0 -140 152 -44 204 36 20 66 20 109 -1z m-3071 -97 c27 -27
34 -42 34 -72 0 -85 -71 -139 -151 -115 -51 15 -79 56 -79 114 0 39 5 49 35
76 29 25 45 31 81 31 39 0 51 -5 80 -34z m1494 -466 c0 -5 5 -10 11 -10 5 0 7
5 4 10 -3 6 -1 10 5 10 17 0 79 -31 86 -42 4 -6 -3 -5 -14 1 -11 6 -45 11 -76
11 -47 0 -57 -4 -75 -26 -12 -15 -21 -39 -21 -54 0 -24 -3 -26 -30 -22 -17 2
-33 8 -36 13 -9 15 35 88 64 103 31 17 82 21 82 6z m92 -70 c23 -21 29 -32 21
-38 -7 -4 -11 -17 -11 -28 2 -16 7 -19 26 -16 l24 5 -21 -42 c-12 -22 -32 -48
-46 -57 -77 -50 -225 -6 -225 69 0 34 28 29 65 -12 41 -45 84 -54 121 -26 18
14 18 14 -4 8 -28 -7 -80 14 -92 38 -16 29 -12 84 8 101 42 37 92 37 134 -2z
m46 -6 c7 -14 8 -23 2 -19 -15 9 -32 45 -22 45 5 0 14 -12 20 -26z"/>
<path d="M2370 4083 c-35 -13 -50 -37 -50 -79 l0 -42 -72 -12 c-101 -16 -242
-49 -307 -71 -66 -23 -71 -23 -71 -4 0 9 -12 27 -26 42 -31 31 -69 27 -122
-13 -29 -22 -33 -31 -29 -58 2 -17 7 -39 11 -48 6 -14 -2 -24 -38 -45 -26 -15
-97 -63 -158 -105 -61 -43 -114 -78 -118 -78 -4 0 -12 11 -18 25 -13 28 -59
35 -68 10 -4 -8 -12 -15 -19 -15 -18 0 -65 -58 -65 -80 0 -10 11 -32 25 -48
l25 -30 -77 -120 c-43 -66 -86 -134 -95 -151 -14 -25 -23 -31 -51 -31 -67 0
-114 -61 -102 -132 5 -29 14 -42 37 -54 33 -17 33 -13 4 -119 -8 -33 -21 -107
-28 -165 -12 -101 -14 -105 -38 -108 -64 -7 -68 -10 -75 -60 -6 -49 6 -100 28
-114 7 -4 27 -8 44 -8 26 0 34 -5 37 -22 3 -13 13 -61 21 -106 9 -46 27 -119
39 -162 l23 -77 -34 -30 c-40 -37 -46 -90 -12 -124 26 -26 80 -49 116 -49 24
-1 33 -10 62 -60 19 -33 60 -92 92 -132 33 -42 54 -77 50 -83 -5 -5 -11 -25
-15 -43 -6 -34 4 -64 33 -94 9 -9 22 -24 29 -33 17 -21 52 -19 82 5 14 11 30
20 35 20 6 0 48 -27 95 -61 47 -33 115 -77 153 -97 37 -20 67 -40 67 -45 0 -4
-12 -24 -27 -44 l-27 -35 24 -18 c25 -19 85 -40 113 -40 9 0 24 12 34 28 37
57 34 56 146 28 56 -14 155 -31 219 -37 l118 -13 -6 -36 c-9 -53 8 -61 108
-58 l83 3 5 49 5 50 105 17 c115 18 193 37 284 69 33 11 60 20 62 20 1 0 7
-13 12 -30 6 -16 23 -35 37 -42 22 -10 33 -8 69 9 60 30 98 110 61 131 -12 6
3 21 67 62 46 30 113 78 151 108 63 51 69 54 86 38 34 -31 122 -9 136 34 3 11
10 20 14 20 4 0 13 11 19 24 9 21 7 30 -13 60 l-24 35 62 93 c34 51 75 121 91
155 l30 62 48 -6 c44 -5 50 -3 78 27 37 39 41 94 10 128 -12 12 -24 22 -28 22
-4 0 -13 4 -20 8 -10 7 -9 27 8 103 12 52 27 135 33 184 l13 90 32 3 c43 4 72
43 72 97 0 49 -28 85 -82 108 -32 14 -35 19 -51 95 -10 45 -31 119 -46 166
l-28 84 28 21 c30 22 46 73 35 114 -7 28 -85 87 -115 87 -20 0 -25 -9 -22 -37
4 -26 -9 -12 -39 45 -17 31 -55 89 -85 127 -95 122 -88 109 -71 144 24 46 20
70 -20 107 -40 38 -84 45 -122 18 -22 -15 -27 -14 -120 48 -53 36 -121 77
-149 93 -42 22 -53 33 -53 53 0 36 -21 104 -38 125 -19 22 -75 22 -107 1 -18
-12 -25 -25 -25 -49 l0 -32 -64 17 c-64 18 -220 44 -329 56 -53 5 -58 8 -54
26 16 61 -79 118 -153 91z m390 -167 c252 -47 524 -179 698 -339 158 -146 254
-276 347 -472 93 -197 123 -316 132 -516 15 -355 -75 -626 -324 -977 -112
-158 -413 -363 -672 -456 -164 -59 -438 -92 -629 -76 -265 23 -508 105 -694
237 -153 108 -332 282 -396 388 -180 294 -243 508 -243 825 0 124 4 167 26
266 61 275 193 522 372 700 210 209 499 358 798 413 61 11 121 22 135 25 54
10 368 -2 450 -18z"/>
<path d="M2280 2689 c0 -404 -3 -597 -11 -611 -14 -27 -69 -48 -124 -48 l-45
0 0 -130 0 -130 148 0 c321 1 424 31 485 145 22 40 22 46 25 703 l3 662 -240
0 -241 0 0 -591z"/>
<path d="M841 3806 c2 -2 20 -6 39 -10 25 -4 31 -3 20 4 -14 9 -69 15 -59 6z"/>
<path d="M4466 2505 c4 -8 10 -15 15 -15 4 0 6 7 3 15 -4 8 -10 15 -15 15 -4
0 -6 -7 -3 -15z"/>
<path d="M4450 2456 c0 -18 54 -23 65 -6 3 6 -3 10 -14 10 -10 0 -26 3 -35 6
-11 4 -16 1 -16 -10z"/>
<path d="M377 2553 c-12 -11 -7 -23 9 -23 12 0 14 -4 7 -12 -20 -25 -23 -65
-8 -78 8 -7 15 -19 15 -27 0 -23 25 -9 28 15 2 12 8 22 13 22 17 0 9 39 -13
59 -17 17 -19 23 -8 36 11 13 9 15 -12 15 -14 0 -28 -3 -31 -7z"/>
<path d="M4010 1240 c-18 -17 -30 -33 -27 -36 2 -3 17 7 33 21 16 15 36 24 46
22 23 -7 23 0 -1 13 -16 8 -25 4 -51 -20z"/>
<path d="M4035 1200 c-3 -5 -16 -10 -28 -10 -17 0 -19 -2 -8 -9 17 -11 38 -4
45 15 6 16 0 19 -9 4z"/>
<path d="M927 1143 c-12 -11 -7 -33 7 -33 12 0 26 20 26 36 0 7 -26 5 -33 -3z"/>
<path d="M3152 4415 c-77 -64 -26 -185 78 -185 77 0 122 59 101 130 -22 75
-120 105 -179 55z"/>
<path d="M1519 4361 c-51 -51 -34 -154 30 -181 91 -37 191 64 147 149 -22 42
-54 61 -104 61 -35 0 -49 -6 -73 -29z"/>
<path d="M4213 3271 c-40 -20 -80 -44 -89 -53 -15 -15 -13 -17 28 -36 25 -11
53 -29 64 -40 17 -18 113 -72 128 -72 4 0 2 9 -4 20 -9 17 -8 20 10 20 12 0
30 -5 41 -10 33 -18 21 0 -32 48 l-51 46 5 58 c6 71 3 71 -100 19z"/>
<path d="M676 3208 l-48 -32 -20 27 c-14 19 -29 27 -49 27 -35 0 -35 -5 -8
-50 l21 -34 -28 -24 c-68 -55 -75 -63 -72 -74 10 -30 35 -31 94 -4 l59 27 20
-25 c16 -19 24 -23 38 -15 14 8 16 18 11 47 -4 20 -11 45 -16 55 -7 14 -2 23
22 43 17 15 35 35 41 45 15 29 -8 24 -65 -13z"/>
<path d="M4184 2004 c5 -17 0 -33 -14 -51 -11 -14 -20 -32 -20 -39 0 -16 26
-19 35 -4 14 23 35 7 56 -46 13 -31 31 -60 40 -64 25 -14 50 10 51 50 1 45 6
54 24 39 21 -18 29 14 11 48 -15 26 -14 30 9 54 l25 26 -26 7 c-29 7 -65 -8
-65 -28 0 -19 -48 -30 -66 -16 -7 7 -16 20 -19 31 -4 10 -15 19 -27 19 -17 0
-19 -4 -14 -26z"/>
<path d="M521 1938 c-11 -30 -5 -43 25 -57 22 -10 25 -15 18 -44 -14 -60 -11
-82 14 -85 12 -2 22 0 22 5 0 4 10 24 22 43 l21 35 28 -60 c26 -57 28 -59 37
-35 15 40 24 177 12 185 -5 3 -38 10 -72 16 -35 5 -75 12 -91 15 -22 5 -29 1
-36 -18z m126 -70 c-3 -7 -5 -2 -5 12 0 14 2 19 5 13 2 -7 2 -19 0 -25z"/>
<path d="M3244 816 c-72 -72 -25 -176 80 -176 101 0 144 150 55 195 -49 26
-97 19 -135 -19z"/>
<path d="M1589 771 c-43 -43 -41 -101 5 -147 24 -24 43 -34 65 -34 44 0 88 25
106 60 41 78 -10 150 -105 150 -33 0 -48 -6 -71 -29z"/>
<path d="M737 769 c7 -7 15 -10 18 -7 3 3 -2 9 -12 12 -14 6 -15 5 -6 -5z"/>
<path d="M817 704 c-3 -5 1 -15 9 -22 16 -14 18 -5 5 17 -5 7 -11 9 -14 5z"/>
<path d="M942 587 c54 -45 83 -67 90 -67 4 0 19 -11 34 -25 59 -55 282 -179
489 -271 111 -50 353 -124 492 -150 250 -47 682 -44 945 7 32 6 55 16 52 21
-3 5 5 8 18 7 12 -1 34 -1 47 -1 20 2 22 5 13 14 -7 7 -12 17 -12 23 0 6 3 6
8 -1 4 -6 17 -14 29 -18 18 -6 22 -4 17 8 -7 19 7 21 24 4 9 -9 12 -9 12 1 0
8 8 10 23 6 19 -5 20 -4 5 5 -10 6 -18 18 -18 27 0 13 3 13 16 2 10 -8 18 -9
22 -3 4 6 25 18 47 28 34 14 36 16 10 11 -87 -15 -130 -26 -133 -35 -5 -15
-22 -12 -22 3 0 9 22 19 56 26 30 7 85 27 122 45 37 18 78 38 92 44 l25 12
-25 -4 c-14 -2 -78 -22 -142 -44 -100 -35 -241 -67 -493 -112 -99 -18 -407
-24 -560 -11 -154 13 -319 40 -456 75 -49 12 -89 18 -89 14 0 -4 -7 -8 -16 -8
-10 0 -14 6 -11 14 4 10 -5 18 -25 25 -44 16 -60 12 -18 -4 19 -7 28 -14 20
-15 -8 -1 -26 -3 -40 -4 -14 -2 -27 0 -30 3 -9 10 -49 31 -61 31 -7 0 -17 7
-24 16 -6 9 -24 16 -39 16 -17 0 -23 3 -16 8 7 4 18 7 24 5 39 -10 55 -18 50
-26 -3 -5 6 -9 20 -9 13 0 33 -3 43 -6 14 -5 15 -4 7 5 -6 7 -21 13 -33 14
-11 1 -21 4 -21 8 0 13 -66 30 -85 23 -12 -5 -16 -4 -11 4 3 6 2 13 -4 17 -5
3 -10 2 -10 -2 0 -5 -9 -9 -21 -9 -18 0 -18 2 -4 12 14 11 14 12 0 18 -9 3
-13 2 -10 -4 8 -13 -2 -12 -47 3 -42 15 -59 27 -31 23 10 -2 12 -1 5 1 -7 3
-10 8 -7 12 2 5 -10 7 -29 6 -18 -2 -39 1 -47 6 -8 5 -9 9 -4 9 6 0 -1 6 -15
13 -14 8 -24 19 -22 27 2 8 -3 10 -13 7 -8 -4 -22 -4 -31 0 -13 5 -13 8 -2 15
10 8 9 9 -3 5 -10 -3 -28 6 -45 24 -16 16 -34 27 -41 25 -7 -3 -10 1 -6 10 3
8 -1 14 -11 14 -9 0 -16 5 -16 10 0 6 -6 10 -14 10 -8 0 -16 5 -18 10 -2 6
-14 12 -28 15 l-25 4 27 -22z m688 -367 c0 -5 -5 -10 -11 -10 -5 0 -7 5 -4 10
3 6 8 10 11 10 2 0 4 -4 4 -10z m1447 -96 c-3 -3 -12 -4 -19 -1 -8 3 -5 6 6 6
11 1 17 -2 13 -5z m-160 -30 c-3 -3 -12 -4 -19 -1 -8 3 -5 6 6 6 11 1 17 -2
13 -5z"/>
<path d="M3585 290 c-3 -6 1 -7 9 -4 18 7 21 14 7 14 -6 0 -13 -4 -16 -10z"/>
<path d="M3430 220 c-8 -5 -10 -10 -5 -10 6 0 17 5 25 10 8 5 11 10 5 10 -5 0
-17 -5 -25 -10z"/>
</g>
</svg>
